<svg version="1.0" xmlns="http://www.w3.org/2000/svg"
 width="404.000000pt" height="182.000000pt" viewBox="0 0 404.000000 182.000000"
 preserveAspectRatio="xMidYMid meet">

<g transform="translate(0.000000,182.000000) scale(0.100000,-0.100000)"
fill="#000000" stroke="none">
<path d="M2057 938 l3 -593 25 -3 25 -3 0 595 0 596 -27 0 -28 0 2 -592z"/>
<path d="M1940 935 l0 -505 25 0 25 0 0 505 0 505 -25 0 -25 0 0 -505z"/>
<path d="M350 1391 c-15 -30 -14 -903 2 -919 17 -17 689 -17 706 0 9 9 12 106
12 375 l0 363 -91 100 -91 100 -264 0 c-250 0 -264 -1 -274 -19z m512 -118 l3
-88 78 -3 77 -3 -2 -337 -3 -337 -310 0 -310 0 -3 428 -2 427 235 0 234 0 3
-87z m128 -40 c0 -2 -20 -3 -45 -3 l-45 0 0 47 0 47 45 -44 c25 -24 45 -45 45
-47z"/>
<path d="M461 1141 c-8 -5 -11 -16 -8 -25 6 -14 34 -16 226 -16 121 0 226 3
235 6 21 8 21 30 0 38 -25 9 -437 7 -453 -3z"/>
<path d="M450 1030 c0 -20 4 -20 238 -18 203 3 237 5 237 18 0 13 -34 15 -237
18 -234 2 -238 2 -238 -18z"/>
<path d="M450 940 c0 -20 4 -20 238 -18 203 3 237 5 237 18 0 13 -34 15 -237
18 -234 2 -238 2 -238 -18z"/>
<path d="M450 851 c0 -10 7 -22 16 -25 25 -9 437 -7 453 3 8 5 11 16 8 25 -6
14 -35 16 -242 16 -224 0 -235 -1 -235 -19z"/>
<path d="M457 774 c-4 -4 -7 -16 -7 -26 0 -17 12 -18 238 -16 229 3 237 4 237
23 0 19 -8 20 -231 23 -127 1 -233 -1 -237 -4z"/>
<path d="M450 660 c0 -20 4 -20 173 -18 145 3 172 5 172 18 0 13 -27 15 -172
18 -169 2 -173 2 -173 -18z"/>
<path d="M1710 935 l0 -455 25 0 25 0 0 455 0 455 -25 0 -25 0 0 -455z"/>
<path d="M2290 936 l0 -456 25 0 25 0 -2 453 -3 452 -22 3 -23 3 0 -455z"/>
<path d="M2170 930 l0 -400 25 0 25 0 0 400 0 400 -25 0 -25 0 0 -400z"/>
<path d="M1827 1303 c-4 -3 -7 -172 -7 -375 l0 -368 25 0 25 0 0 375 c0 357
-1 375 -18 375 -10 0 -22 -3 -25 -7z"/>
<path d="M2400 935 l0 -315 30 0 30 0 0 315 0 315 -30 0 -30 0 0 -315z"/>
<path d="M3100 930 l0 -250 25 0 25 0 0 250 0 250 -25 0 -25 0 0 -250z"/>
<path d="M1590 936 l0 -206 28 0 27 0 -2 202 -2 203 -25 3 -26 3 0 -205z"/>
<path d="M3215 1108 c-3 -8 -4 -90 -3 -183 l3 -170 25 0 25 0 0 180 c0 179 0
180 -23 183 -12 2 -24 -3 -27 -10z"/>
<path d="M2520 930 l0 -160 25 0 25 0 0 160 0 160 -25 0 -25 0 0 -160z"/>
<path d="M2990 929 c0 -150 0 -150 23 -147 22 3 22 6 25 151 l3 147 -26 0 -25
0 0 -151z"/>
<path d="M1475 1058 c-3 -8 -4 -68 -3 -134 l3 -119 25 0 25 0 0 130 c0 127 0
130 -23 133 -12 2 -24 -3 -27 -10z"/>
<path d="M3337 1063 c-4 -3 -7 -62 -7 -130 0 -101 3 -125 15 -129 36 -14 40 0
37 135 -3 118 -5 131 -21 131 -10 0 -21 -3 -24 -7z"/>
<path d="M2640 933 l0 -113 25 0 26 0 -3 112 c-3 107 -4 111 -25 113 -23 2
-23 0 -23 -112z"/>
<path d="M2750 936 c0 -75 0 -76 25 -76 26 0 26 1 23 73 -3 66 -5 72 -25 75
-22 3 -23 0 -23 -72z"/>
<path d="M1360 935 c0 -63 1 -65 25 -65 24 0 25 2 25 65 0 63 -1 65 -25 65
-24 0 -25 -2 -25 -65z"/>
<path d="M2870 935 c0 -63 1 -65 25 -65 24 0 25 2 25 65 0 63 -1 65 -25 65
-24 0 -25 -2 -25 -65z"/>
<path d="M1247 984 c-4 -4 -7 -29 -7 -56 0 -47 1 -48 31 -48 l30 0 -3 53 c-3
44 -6 52 -23 55 -12 2 -24 0 -28 -4z"/>
<path d="M3450 935 c0 -52 1 -55 25 -55 24 0 25 3 25 55 0 52 -1 55 -25 55
-24 0 -25 -3 -25 -55z"/>
<path d="M3560 930 c0 -57 1 -60 25 -60 24 0 25 3 25 60 0 57 -1 60 -25 60
-24 0 -25 -3 -25 -60z"/>
<path d="M3680 936 c0 -32 3 -36 26 -36 23 0 25 3 22 33 -2 24 -8 33 -25 35
-20 3 -23 -1 -23 -32z"/>
<path d="M3800 935 c0 -9 9 -15 25 -15 16 0 25 6 25 15 0 9 -9 15 -25 15 -16
0 -25 -6 -25 -15z"/>
</g>
</svg>
